<svg version="1.1" xmlns="http://www.w3.org/2000/svg" viewBox="0 0 1080 1010" width="1080" height="1010">
  <!-- svg-source:excalidraw -->
  
  <defs>
    <style class="style-fonts">
      @font-face {
        font-family: "Virgil";
        src: url("https://unpkg.com/@excalidraw/excalidraw@undefined/dist/excalidraw-assets/Virgil.woff2");
      }
      @font-face {
        font-family: "Cascadia";
        src: url("https://unpkg.com/@excalidraw/excalidraw@undefined/dist/excalidraw-assets/Cascadia.woff2");
      }
      @font-face {
        font-family: "Assistant";
        src: url("https://unpkg.com/@excalidraw/excalidraw@undefined/dist/excalidraw-assets/Assistant-Regular.woff2");
      }
    </style>
    
  </defs>
  <rect x="0" y="0" width="1080" height="1010" fill="#ffffff"></rect><g transform="translate(190 10) rotate(0 350 18)"><text x="350" y="0" font-family="Segoe UI Emoji" font-size="28px" fill="#1e1e1e" text-anchor="middle" style="white-space: pre;" direction="ltr" dominant-baseline="text-before-edge">Aircraft Digital Twin — End-to-End Lab Architecture</text></g><g stroke-linecap="round" transform="translate(420 55) rotate(0 111.017578125 22.5)"><path d="M11.25 0 C52.94 0, 94.63 0, 210.79 0 C218.29 0, 222.04 3.75, 222.04 11.25 C222.04 19.4, 222.04 27.56, 222.04 33.75 C222.04 41.25, 218.29 45, 210.79 45 C147.97 45, 85.16 45, 11.25 45 C3.75 45, 0 41.25, 0 33.75 C0 25.48, 0 17.21, 0 11.25 C0 3.75, 3.75 0, 11.25 0" stroke="none" stroke-width="0" fill="#e9ecef"></path><path d="M11.25 0 C52.95 0, 94.66 0, 210.79 0 M11.25 0 C77.42 0, 143.59 0, 210.79 0 M210.79 0 C218.29 0, 222.04 3.75, 222.04 11.25 M210.79 0 C218.29 0, 222.04 3.75, 222.04 11.25 M222.04 11.25 C222.04 16.64, 222.04 22.03, 222.04 33.75 M222.04 11.25 C222.04 16.27, 222.04 21.29, 222.04 33.75 M222.04 33.75 C222.04 41.25, 218.29 45, 210.79 45 M222.04 33.75 C222.04 41.25, 218.29 45, 210.79 45 M210.79 45 C135.7 45, 60.62 45, 11.25 45 M210.79 45 C156.45 45, 102.12 45, 11.25 45 M11.25 45 C3.75 45, 0 41.25, 0 33.75 M11.25 45 C3.75 45, 0 41.25, 0 33.75 M0 33.75 C0 24.92, 0 16.1, 0 11.25 M0 33.75 C0 25.06, 0 16.37, 0 11.25 M0 11.25 C0 3.75, 3.75 0, 11.25 0 M0 11.25 C0 3.75, 3.75 0, 11.25 0" stroke="#1e1e1e" stroke-width="2" fill="none"></path></g><g transform="translate(446.6076354980469 65) rotate(0 84.40994262695312 12.5)"><text x="84.40994262695312" y="0" font-family="Segoe UI Emoji" font-size="20px" fill="#1e1e1e" text-anchor="middle" style="white-space: pre;" direction="ltr" dominant-baseline="text-before-edge">👤 User Question</text></g><g stroke-linecap="round"><g transform="translate(520 100) rotate(0 0 15)"><path d="M0 0 C0 5, 0 25, 0 30 M0 0 C0 5, 0 25, 0 30" stroke="#1e1e1e" stroke-width="2" fill="none"></path></g><g transform="translate(520 100) rotate(0 0 15)"><path d="M-5.13 15.9 C-4.06 18.85, -2.99 21.8, 0 30 M-5.13 15.9 C-3.72 19.79, -2.3 23.67, 0 30" stroke="#1e1e1e" stroke-width="2" fill="none"></path></g><g transform="translate(520 100) rotate(0 0 15)"><path d="M5.13 15.9 C4.06 18.85, 2.99 21.8, 0 30 M5.13 15.9 C3.72 19.79, 2.3 23.67, 0 30" stroke="#1e1e1e" stroke-width="2" fill="none"></path></g></g><mask></mask><g stroke-opacity="0.15" fill-opacity="0.15" stroke-linecap="round" transform="translate(10 120) rotate(0 530 260)"><path d="M32 0 C299.82 0, 567.63 0, 1028 0 C1049.33 0, 1060 10.67, 1060 32 C1060 186.35, 1060 340.71, 1060 488 C1060 509.33, 1049.33 520, 1028 520 C708.22 520, 388.44 520, 32 520 C10.67 520, 0 509.33, 0 488 C0 352.42, 0 216.85, 0 32 C0 10.67, 10.67 0, 32 0" stroke="none" stroke-width="0" fill="#d0bfff"></path><path d="M32 0 C240.18 0, 448.36 0, 1028 0 M32 0 C378.21 0, 724.42 0, 1028 0 M1028 0 C1049.33 0, 1060 10.67, 1060 32 M1028 0 C1049.33 0, 1060 10.67, 1060 32 M1060 32 C1060 165.21, 1060 298.42, 1060 488 M1060 32 C1060 210.6, 1060 389.21, 1060 488 M1060 488 C1060 509.33, 1049.33 520, 1028 520 M1060 488 C1060 509.33, 1049.33 520, 1028 520 M1028 520 C805.58 520, 583.16 520, 32 520 M1028 520 C709.52 520, 391.03 520, 32 520 M32 520 C10.67 520, 0 509.33, 0 488 M32 520 C10.67 520, 0 509.33, 0 488 M0 488 C0 372.78, 0 257.55, 0 32 M0 488 C0 389.77, 0 291.54, 0 32 M0 32 C0 10.67, 10.67 0, 32 0 M0 32 C0 10.67, 10.67 0, 32 0" stroke="#5c7cfa" stroke-width="2" fill="none"></path></g><g transform="translate(25 128) rotate(0 150 12)"><text x="0" y="0" font-family="Segoe UI Emoji" font-size="18px" fill="#5c7cfa" text-anchor="start" style="white-space: pre;" direction="ltr" dominant-baseline="text-before-edge">📊 DATABRICKS WORKSPACE</text></g><g stroke-linecap="round" transform="translate(310 160) rotate(0 210 32.5)"><path d="M16.25 0 C135.93 0, 255.62 0, 403.75 0 C414.58 0, 420 5.42, 420 16.25 C420 28.9, 420 41.55, 420 48.75 C420 59.58, 414.58 65, 403.75 65 C251.89 65, 100.02 65, 16.25 65 C5.42 65, 0 59.58, 0 48.75 C0 36.28, 0 23.8, 0 16.25 C0 5.42, 5.42 0, 16.25 0" stroke="none" stroke-width="0" fill="#d0bfff"></path><path d="M16.25 0 C97.25 0, 178.24 0, 403.75 0 M16.25 0 C129.24 0, 242.23 0, 403.75 0 M403.75 0 C414.58 0, 420 5.42, 420 16.25 M403.75 0 C414.58 0, 420 5.42, 420 16.25 M420 16.25 C420 26.88, 420 37.51, 420 48.75 M420 16.25 C420 28.3, 420 40.35, 420 48.75 M420 48.75 C420 59.58, 414.58 65, 403.75 65 M420 48.75 C420 59.58, 414.58 65, 403.75 65 M403.75 65 C305.07 65, 206.39 65, 16.25 65 M403.75 65 C267.58 65, 131.41 65, 16.25 65 M16.25 65 C5.42 65, 0 59.58, 0 48.75 M16.25 65 C5.42 65, 0 59.58, 0 48.75 M0 48.75 C0 41.4, 0 34.04, 0 16.25 M0 48.75 C0 36.78, 0 24.81, 0 16.25 M0 16.25 C0 5.42, 5.42 0, 16.25 0 M0 16.25 C0 5.42, 5.42 0, 16.25 0" stroke="#5c7cfa" stroke-width="2" fill="none"></path></g><g transform="translate(340 168) rotate(0 180 25)"><text x="180" y="0" font-family="Segoe UI Emoji" font-size="20px" fill="#5c7cfa" text-anchor="middle" style="white-space: pre;" direction="ltr" dominant-baseline="text-before-edge">🧠 Multi-Agent Supervisor</text><text x="180" y="25" font-family="Segoe UI Emoji" font-size="20px" fill="#5c7cfa" text-anchor="middle" style="white-space: pre;" direction="ltr" dominant-baseline="text-before-edge">Lab 4 — Compound AI Agents</text></g><g stroke-linecap="round"><g transform="translate(400 225) rotate(0 -90 25)"><path d="M0 0 C-30 8.33, -150 41.67, -180 50 M0 0 C-30 8.33, -150 41.67, -180 50" stroke="#1971c2" stroke-width="2" fill="none"></path></g><g transform="translate(400 225) rotate(0 -90 25)"><path d="M-155.58 32.57 C-160.69 36.21, -165.79 39.86, -180 50 M-155.58 32.57 C-161.34 36.68, -167.09 40.78, -180 50" stroke="#1971c2" stroke-width="2" fill="none"></path></g><g transform="translate(400 225) rotate(0 -90 25)"><path d="M-150.09 52.34 C-156.34 51.85, -162.6 51.36, -180 50 M-150.09 52.34 C-157.14 51.79, -164.18 51.24, -180 50" stroke="#1971c2" stroke-width="2" fill="none"></path></g></g><mask></mask><g stroke-opacity="0.7" fill-opacity="0.7" transform="translate(250 238) rotate(0 70 8)"><text x="70" y="0" font-family="Segoe UI Emoji" font-size="12px" fill="#1971c2" text-anchor="middle" style="white-space: pre;" direction="ltr" dominant-baseline="text-before-edge">"sensor readings?"</text></g><g stroke-linecap="round"><g transform="translate(640 225) rotate(0 90 25)"><path d="M0 0 C30 8.33, 150 41.67, 180 50 M0 0 C30 8.33, 150 41.67, 180 50" stroke="#2f9e44" stroke-width="2" fill="none"></path></g><g transform="translate(640 225) rotate(0 90 25)"><path d="M150.09 52.34 C156.34 51.85, 162.6 51.36, 180 50 M150.09 52.34 C161.44 51.45, 172.8 50.56, 180 50" stroke="#2f9e44" stroke-width="2" fill="none"></path></g><g transform="translate(640 225) rotate(0 90 25)"><path d="M155.58 32.57 C160.69 36.21, 165.79 39.86, 180 50 M155.58 32.57 C164.85 39.18, 174.12 45.8, 180 50" stroke="#2f9e44" stroke-width="2" fill="none"></path></g></g><mask></mask><g stroke-opacity="0.7" fill-opacity="0.7" transform="translate(690 238) rotate(0 70 8)"><text x="70" y="0" font-family="Segoe UI Emoji" font-size="12px" fill="#2f9e44" text-anchor="middle" style="white-space: pre;" direction="ltr" dominant-baseline="text-before-edge">"relationships?"</text></g><g stroke-linecap="round" transform="translate(40 275) rotate(0 140 27.5)"><path d="M13.75 0 C71.51 0, 129.28 0, 266.25 0 C275.42 0, 280 4.58, 280 13.75 C280 23.14, 280 32.52, 280 41.25 C280 50.42, 275.42 55, 266.25 55 C214.63 55, 163.01 55, 13.75 55 C4.58 55, 0 50.42, 0 41.25 C0 34.56, 0 27.87, 0 13.75 C0 4.58, 4.58 0, 13.75 0" stroke="none" stroke-width="0" fill="#a5d8ff"></path><path d="M13.75 0 C66.54 0, 119.32 0, 266.25 0 M13.75 0 C95.45 0, 177.14 0, 266.25 0 M266.25 0 C275.42 0, 280 4.58, 280 13.75 M266.25 0 C275.42 0, 280 4.58, 280 13.75 M280 13.75 C280 20.13, 280 26.52, 280 41.25 M280 13.75 C280 22.22, 280 30.68, 280 41.25 M280 41.25 C280 50.42, 275.42 55, 266.25 55 M280 41.25 C280 50.42, 275.42 55, 266.25 55 M266.25 55 C178.2 55, 90.16 55, 13.75 55 M266.25 55 C204.05 55, 141.86 55, 13.75 55 M13.75 55 C4.58 55, 0 50.42, 0 41.25 M13.75 55 C4.58 55, 0 50.42, 0 41.25 M0 41.25 C0 31.7, 0 22.16, 0 13.75 M0 41.25 C0 35.01, 0 28.78, 0 13.75 M0 13.75 C0 4.58, 4.58 0, 13.75 0 M0 13.75 C0 4.58, 4.58 0, 13.75 0" stroke="#1971c2" stroke-width="2" fill="none"></path></g><g transform="translate(70 283) rotate(0 110 20)"><text x="110" y="0" font-family="Segoe UI Emoji" font-size="16px" fill="#1971c2" text-anchor="middle" style="white-space: pre;" direction="ltr" dominant-baseline="text-before-edge">📊 Genie Space Agent</text><text x="110" y="20" font-family="Segoe UI Emoji" font-size="16px" fill="#1971c2" text-anchor="middle" style="white-space: pre;" direction="ltr" dominant-baseline="text-before-edge">sensor_data_agent</text></g><g stroke-linecap="round" transform="translate(710 275) rotate(0 140 27.5)"><path d="M13.75 0 C81.61 0, 149.46 0, 266.25 0 C275.42 0, 280 4.58, 280 13.75 C280 24.53, 280 35.31, 280 41.25 C280 50.42, 275.42 55, 266.25 55 C196.74 55, 127.23 55, 13.75 55 C4.58 55, 0 50.42, 0 41.25 C0 32.18, 0 23.12, 0 13.75 C0 4.58, 4.58 0, 13.75 0" stroke="none" stroke-width="0" fill="#b2f2bb"></path><path d="M13.75 0 C66.54 0, 119.32 0, 266.25 0 M13.75 0 C81.3 0, 148.86 0, 266.25 0 M266.25 0 C275.42 0, 280 4.58, 280 13.75 M266.25 0 C275.42 0, 280 4.58, 280 13.75 M280 13.75 C280 21.1, 280 28.44, 280 41.25 M280 13.75 C280 21.64, 280 29.53, 280 41.25 M280 41.25 C280 50.42, 275.42 55, 266.25 55 M280 41.25 C280 50.42, 275.42 55, 266.25 55 M266.25 55 C170.29 55, 74.33 55, 13.75 55 M266.25 55 C196.06 55, 125.88 55, 13.75 55 M13.75 55 C4.58 55, 0 50.42, 0 41.25 M13.75 55 C4.58 55, 0 50.42, 0 41.25 M0 41.25 C0 32.43, 0 23.61, 0 13.75 M0 41.25 C0 30.81, 0 20.37, 0 13.75 M0 13.75 C0 4.58, 4.58 0, 13.75 0 M0 13.75 C0 4.58, 4.58 0, 13.75 0" stroke="#2f9e44" stroke-width="2" fill="none"></path></g><g transform="translate(740 283) rotate(0 110 20)"><text x="110" y="0" font-family="Segoe UI Emoji" font-size="16px" fill="#2f9e44" text-anchor="middle" style="white-space: pre;" direction="ltr" dominant-baseline="text-before-edge">🔷 Neo4j MCP Agent</text><text x="110" y="20" font-family="Segoe UI Emoji" font-size="16px" fill="#2f9e44" text-anchor="middle" style="white-space: pre;" direction="ltr" dominant-baseline="text-before-edge">neo4j_graph_agent</text></g><g stroke-linecap="round"><g transform="translate(180 330) rotate(0 0 20)"><path d="M0 0 C0 6.67, 0 33.33, 0 40 M0 0 C0 6.67, 0 33.33, 0 40" stroke="#1971c2" stroke-width="2" fill="none"></path></g><g transform="translate(180 330) rotate(0 0 20)"><path d="M-6.84 21.21 C-5.41 25.14, -3.98 29.06, 0 40 M-6.84 21.21 C-5.39 25.18, -3.95 29.16, 0 40" stroke="#1971c2" stroke-width="2" fill="none"></path></g><g transform="translate(180 330) rotate(0 0 20)"><path d="M6.84 21.21 C5.41 25.14, 3.98 29.06, 0 40 M6.84 21.21 C5.39 25.18, 3.95 29.16, 0 40" stroke="#1971c2" stroke-width="2" fill="none"></path></g></g><mask></mask><g stroke-opacity="0.7" fill-opacity="0.7" transform="translate(190 340) rotate(0 15 8)"><text x="0" y="0" font-family="Segoe UI Emoji" font-size="12px" fill="#1971c2" text-anchor="start" style="white-space: pre;" direction="ltr" dominant-baseline="text-before-edge">SQL</text></g><g stroke-linecap="round"><g transform="translate(850 330) rotate(0 0 20)"><path d="M0 0 C0 6.67, 0 33.33, 0 40 M0 0 C0 6.67, 0 33.33, 0 40" stroke="#2f9e44" stroke-width="2" fill="none"></path></g><g transform="translate(850 330) rotate(0 0 20)"><path d="M-6.84 21.21 C-5.41 25.14, -3.98 29.06, 0 40 M-6.84 21.21 C-4.41 27.89, -1.98 34.57, 0 40" stroke="#2f9e44" stroke-width="2" fill="none"></path></g><g transform="translate(850 330) rotate(0 0 20)"><path d="M6.84 21.21 C5.41 25.14, 3.98 29.06, 0 40 M6.84 21.21 C4.41 27.89, 1.98 34.57, 0 40" stroke="#2f9e44" stroke-width="2" fill="none"></path></g></g><mask></mask><g stroke-opacity="0.7" fill-opacity="0.7" transform="translate(860 340) rotate(0 40 8)"><text x="0" y="0" font-family="Segoe UI Emoji" font-size="12px" fill="#2f9e44" text-anchor="start" style="white-space: pre;" direction="ltr" dominant-baseline="text-before-edge">MCP tools</text></g><g stroke-linecap="round" transform="translate(25 370) rotate(0 155 75)"><path d="M32 0 C127.61 0, 223.21 0, 278 0 C299.33 0, 310 10.67, 310 32 C310 61.6, 310 91.2, 310 118 C310 139.33, 299.33 150, 278 150 C207.2 150, 136.39 150, 32 150 C10.67 150, 0 139.33, 0 118 C0 84.53, 0 51.06, 0 32 C0 10.67, 10.67 0, 32 0" stroke="none" stroke-width="0" fill="#a5d8ff"></path><path d="M32 0 C83.44 0, 134.87 0, 278 0 M32 0 C105.68 0, 179.36 0, 278 0 M278 0 C299.33 0, 310 10.67, 310 32 M278 0 C299.33 0, 310 10.67, 310 32 M310 32 C310 64.01, 310 96.01, 310 118 M310 32 C310 51.27, 310 70.53, 310 118 M310 118 C310 139.33, 299.33 150, 278 150 M310 118 C310 139.33, 299.33 150, 278 150 M278 150 C210.58 150, 143.16 150, 32 150 M278 150 C186.27 150, 94.54 150, 32 150 M32 150 C10.67 150, 0 139.33, 0 118 M32 150 C10.67 150, 0 139.33, 0 118 M0 118 C0 97.22, 0 76.44, 0 32 M0 118 C0 97.52, 0 77.05, 0 32 M0 32 C0 10.67, 10.67 0, 32 0 M0 32 C0 10.67, 10.67 0, 32 0" stroke="#1971c2" stroke-width="2" fill="none"></path></g><g transform="translate(45 378) rotate(0 135 67)"><text x="135" y="0" font-family="Segoe UI Emoji" font-size="14px" fill="#1971c2" text-anchor="middle" style="white-space: pre;" direction="ltr" dominant-baseline="text-before-edge">💾 Unity Catalog — Lakehouse</text><text x="135" y="17.5" font-family="Segoe UI Emoji" font-size="14px" fill="#1971c2" text-anchor="middle" style="white-space: pre;" direction="ltr" dominant-baseline="text-before-edge">aws-databricks-neo4j-workshop.lakehouse</text><text x="135" y="35" font-family="Segoe UI Emoji" font-size="14px" fill="#1971c2" text-anchor="middle" style="white-space: pre;" direction="ltr" dominant-baseline="text-before-edge"></text><text x="135" y="52.5" font-family="Segoe UI Emoji" font-size="14px" fill="#1971c2" text-anchor="middle" style="white-space: pre;" direction="ltr" dominant-baseline="text-before-edge">sensor_readings  (345,600+ rows)</text><text x="135" y="70" font-family="Segoe UI Emoji" font-size="14px" fill="#1971c2" text-anchor="middle" style="white-space: pre;" direction="ltr" dominant-baseline="text-before-edge">sensors  (160)</text><text x="135" y="87.5" font-family="Segoe UI Emoji" font-size="14px" fill="#1971c2" text-anchor="middle" style="white-space: pre;" direction="ltr" dominant-baseline="text-before-edge">systems  (~80)</text><text x="135" y="105" font-family="Segoe UI Emoji" font-size="14px" fill="#1971c2" text-anchor="middle" style="white-space: pre;" direction="ltr" dominant-baseline="text-before-edge">aircraft  (20)</text></g><g stroke-linecap="round" transform="translate(690 370) rotate(0 160 52.5)"><path d="M26.25 0 C87.4 0, 148.56 0, 293.75 0 C311.25 0, 320 8.75, 320 26.25 C320 46.98, 320 67.71, 320 78.75 C320 96.25, 311.25 105, 293.75 105 C197.81 105, 101.87 105, 26.25 105 C8.75 105, 0 96.25, 0 78.75 C0 64.28, 0 49.81, 0 26.25 C0 8.75, 8.75 0, 26.25 0" stroke="none" stroke-width="0" fill="#b2f2bb"></path><path d="M26.25 0 C82.18 0, 138.12 0, 293.75 0 M26.25 0 C91.38 0, 156.52 0, 293.75 0 M293.75 0 C311.25 0, 320 8.75, 320 26.25 M293.75 0 C311.25 0, 320 8.75, 320 26.25 M320 26.25 C320 37.13, 320 48, 320 78.75 M320 26.25 C320 36.91, 320 47.57, 320 78.75 M320 78.75 C320 96.25, 311.25 105, 293.75 105 M320 78.75 C320 96.25, 311.25 105, 293.75 105 M293.75 105 C212.05 105, 130.35 105, 26.25 105 M293.75 105 C239.04 105, 184.33 105, 26.25 105 M26.25 105 C8.75 105, 0 96.25, 0 78.75 M26.25 105 C8.75 105, 0 96.25, 0 78.75 M0 78.75 C0 67.45, 0 56.15, 0 26.25 M0 78.75 C0 58.23, 0 37.7, 0 26.25 M0 26.25 C0 8.75, 8.75 0, 26.25 0 M0 26.25 C0 8.75, 8.75 0, 26.25 0" stroke="#2f9e44" stroke-width="2" fill="none"></path></g><g transform="translate(710 378) rotate(0 140 45)"><text x="140" y="0" font-family="Segoe UI Emoji" font-size="14px" fill="#2f9e44" text-anchor="middle" style="white-space: pre;" direction="ltr" dominant-baseline="text-before-edge">🔗 Unity Catalog — HTTP Connection</text><text x="140" y="17.5" font-family="Segoe UI Emoji" font-size="14px" fill="#2f9e44" text-anchor="middle" style="white-space: pre;" direction="ltr" dominant-baseline="text-before-edge">neo4j_agentcore_mcp</text><text x="140" y="35" font-family="Segoe UI Emoji" font-size="14px" fill="#2f9e44" text-anchor="middle" style="white-space: pre;" direction="ltr" dominant-baseline="text-before-edge">OAuth2 M2M (Cognito)</text><text x="140" y="52.5" font-family="Segoe UI Emoji" font-size="14px" fill="#2f9e44" text-anchor="middle" style="white-space: pre;" direction="ltr" dominant-baseline="text-before-edge"></text><text x="140" y="70" font-family="Segoe UI Emoji" font-size="14px" fill="#2f9e44" text-anchor="middle" style="white-space: pre;" direction="ltr" dominant-baseline="text-before-edge">/api/2.0/mcp/external/{conn}</text></g><g stroke-opacity="0.7" fill-opacity="0.7" transform="translate(700 480) rotate(0 150 20)"><text x="150" y="0" font-family="Segoe UI Emoji" font-size="11px" fill="#868e96" text-anchor="middle" style="white-space: pre;" direction="ltr" dominant-baseline="text-before-edge">Setup: databrick_samples/</text><text x="150" y="13.75" font-family="Segoe UI Emoji" font-size="11px" fill="#868e96" text-anchor="middle" style="white-space: pre;" direction="ltr" dominant-baseline="text-before-edge">neo4j-mcp-http-connection.ipynb</text></g><g stroke-opacity="0.7" fill-opacity="0.7" transform="translate(30 530) rotate(0 150 20)"><text x="150" y="0" font-family="Segoe UI Emoji" font-size="11px" fill="#868e96" text-anchor="middle" style="white-space: pre;" direction="ltr" dominant-baseline="text-before-edge">Time-series | Aggregations | Trends</text><text x="150" y="13.75" font-family="Segoe UI Emoji" font-size="11px" fill="#868e96" text-anchor="middle" style="white-space: pre;" direction="ltr" dominant-baseline="text-before-edge">Anomaly detection | Fleet comparisons</text></g><g stroke-opacity="0.7" fill-opacity="0.7" transform="translate(395 530) rotate(0 125 20)"><text x="125" y="0" font-family="Segoe UI Emoji" font-size="11px" fill="#868e96" text-anchor="middle" style="white-space: pre;" direction="ltr" dominant-baseline="text-before-edge">Databricks auto-refreshes OAuth2 tokens.</text><text x="125" y="13.75" font-family="Segoe UI Emoji" font-size="11px" fill="#868e96" text-anchor="middle" style="white-space: pre;" direction="ltr" dominant-baseline="text-before-edge">Proxy handles JSON-RPC forwarding.</text></g><g stroke-linecap="round"><g transform="translate(850 475) rotate(0 -97.5 115)"><path d="M0 0 C0 19.17, 32.5 76.67, 0 115 C-32.5 153.33, -162.5 210.83, -195 230 M0 0 C0 19.17, 32.5 76.67, 0 115 C-32.5 153.33, -162.5 210.83, -195 230" stroke="#2f9e44" stroke-width="3" fill="none"></path></g><g transform="translate(850 475) rotate(0 -97.5 115)"><path d="M-174.68 207.93 C-178.93 212.54, -183.18 217.16, -195 230 M-174.68 207.93 C-178.82 212.42, -182.95 216.91, -195 230" stroke="#2f9e44" stroke-width="3" fill="none"></path></g><g transform="translate(850 475) rotate(0 -97.5 115)"><path d="M-165.25 226.15 C-171.47 226.96, -177.69 227.76, -195 230 M-165.25 226.15 C-171.3 226.93, -177.35 227.72, -195 230" stroke="#2f9e44" stroke-width="3" fill="none"></path></g></g><mask></mask><g transform="translate(860 590) rotate(0 85 23)"><text x="0" y="0" font-family="Segoe UI Emoji" font-size="14px" fill="#e8590c" text-anchor="start" style="white-space: pre;" direction="ltr" dominant-baseline="text-before-edge">HTTPS + OAuth2 JWT</text><text x="0" y="17.5" font-family="Segoe UI Emoji" font-size="14px" fill="#e8590c" text-anchor="start" style="white-space: pre;" direction="ltr" dominant-baseline="text-before-edge">JSON-RPC 2.0</text></g><g stroke-opacity="0.2" fill-opacity="0.2" stroke-linecap="round" transform="translate(520 665) rotate(0 260 77.5)"><path d="M32 0 C200.04 0, 368.08 0, 488 0 C509.33 0, 520 10.67, 520 32 C520 56.79, 520 81.58, 520 123 C520 144.33, 509.33 155, 488 155 C348.18 155, 208.37 155, 32 155 C10.67 155, 0 144.33, 0 123 C0 88.57, 0 54.14, 0 32 C0 10.67, 10.67 0, 32 0" stroke="none" stroke-width="0" fill="#ffec99"></path><path d="M32 0 C127.36 0, 222.72 0, 488 0 M32 0 C190.44 0, 348.87 0, 488 0 M488 0 C509.33 0, 520 10.67, 520 32 M488 0 C509.33 0, 520 10.67, 520 32 M520 32 C520 62, 520 92, 520 123 M520 32 C520 62, 520 92.01, 520 123 M520 123 C520 144.33, 509.33 155, 488 155 M520 123 C520 144.33, 509.33 155, 488 155 M488 155 C389.9 155, 291.8 155, 32 155 M488 155 C344.24 155, 200.47 155, 32 155 M32 155 C10.67 155, 0 144.33, 0 123 M32 155 C10.67 155, 0 144.33, 0 123 M0 123 C0 102.71, 0 82.43, 0 32 M0 123 C0 93.35, 0 63.7, 0 32 M0 32 C0 10.67, 10.67 0, 32 0 M0 32 C0 10.67, 10.67 0, 32 0" stroke="#e8590c" stroke-width="2" fill="none"></path></g><g transform="translate(535 673) rotate(0 100 12)"><text x="0" y="0" font-family="Segoe UI Emoji" font-size="18px" fill="#e8590c" text-anchor="start" style="white-space: pre;" direction="ltr" dominant-baseline="text-before-edge">☁️ AWS AGENTCORE</text></g><g stroke-linecap="round" transform="translate(545 705) rotate(0 110 32.5)"><path d="M16.25 0 C55.34 0, 94.43 0, 203.75 0 C214.58 0, 220 5.42, 220 16.25 C220 26.75, 220 37.25, 220 48.75 C220 59.58, 214.58 65, 203.75 65 C132.98 65, 62.2 65, 16.25 65 C5.42 65, 0 59.58, 0 48.75 C0 40.14, 0 31.54, 0 16.25 C0 5.42, 5.42 0, 16.25 0" stroke="none" stroke-width="0" fill="#ffec99"></path><path d="M16.25 0 C55.46 0, 94.68 0, 203.75 0 M16.25 0 C70.89 0, 125.54 0, 203.75 0 M203.75 0 C214.58 0, 220 5.42, 220 16.25 M203.75 0 C214.58 0, 220 5.42, 220 16.25 M220 16.25 C220 28.1, 220 39.95, 220 48.75 M220 16.25 C220 26.28, 220 36.32, 220 48.75 M220 48.75 C220 59.58, 214.58 65, 203.75 65 M220 48.75 C220 59.58, 214.58 65, 203.75 65 M203.75 65 C157.54 65, 111.32 65, 16.25 65 M203.75 65 C138.7 65, 73.66 65, 16.25 65 M16.25 65 C5.42 65, 0 59.58, 0 48.75 M16.25 65 C5.42 65, 0 59.58, 0 48.75 M0 48.75 C0 35.86, 0 22.98, 0 16.25 M0 48.75 C0 39.69, 0 30.64, 0 16.25 M0 16.25 C0 5.42, 5.42 0, 16.25 0 M0 16.25 C0 5.42, 5.42 0, 16.25 0" stroke="#e8590c" stroke-width="2" fill="none"></path></g><g transform="translate(565 713) rotate(0 90 25)"><text x="90" y="0" font-family="Segoe UI Emoji" font-size="14px" fill="#e8590c" text-anchor="middle" style="white-space: pre;" direction="ltr" dominant-baseline="text-before-edge">🔗 AgentCore Gateway</text><text x="90" y="17.5" font-family="Segoe UI Emoji" font-size="14px" fill="#e8590c" text-anchor="middle" style="white-space: pre;" direction="ltr" dominant-baseline="text-before-edge">JWT validation + routing</text></g><g stroke-linecap="round"><g transform="translate(765 737) rotate(0 20 0)"><path d="M0 0 C6.67 0, 33.33 0, 40 0 M0 0 C6.67 0, 33.33 0, 40 0" stroke="#e8590c" stroke-width="2" fill="none"></path></g><g transform="translate(765 737) rotate(0 20 0)"><path d="M21.21 6.84 C25.14 5.41, 29.07 3.98, 40 0 M21.21 6.84 C25.63 5.23, 30.06 3.62, 40 0" stroke="#e8590c" stroke-width="2" fill="none"></path></g><g transform="translate(765 737) rotate(0 20 0)"><path d="M21.21 -6.84 C25.14 -5.41, 29.07 -3.98, 40 0 M21.21 -6.84 C25.63 -5.23, 30.06 -3.62, 40 0" stroke="#e8590c" stroke-width="2" fill="none"></path></g></g><mask></mask><g stroke-linecap="round" transform="translate(805 705) rotate(0 110 32.5)"><path d="M16.25 0 C66.58 0, 116.91 0, 203.75 0 C214.58 0, 220 5.42, 220 16.25 C220 25.97, 220 35.7, 220 48.75 C220 59.58, 214.58 65, 203.75 65 C131.8 65, 59.85 65, 16.25 65 C5.42 65, 0 59.58, 0 48.75 C0 35.93, 0 23.11, 0 16.25 C0 5.42, 5.42 0, 16.25 0" stroke="none" stroke-width="0" fill="#ffec99"></path><path d="M16.25 0 C55.47 0, 94.68 0, 203.75 0 M16.25 0 C73.89 0, 131.53 0, 203.75 0 M203.75 0 C214.58 0, 220 5.42, 220 16.25 M203.75 0 C214.58 0, 220 5.42, 220 16.25 M220 16.25 C220 23.31, 220 30.37, 220 48.75 M220 16.25 C220 25.26, 220 34.28, 220 48.75 M220 48.75 C220 59.58, 214.58 65, 203.75 65 M220 48.75 C220 59.58, 214.58 65, 203.75 65 M203.75 65 C148.72 65, 93.69 65, 16.25 65 M203.75 65 C129.81 65, 55.86 65, 16.25 65 M16.25 65 C5.42 65, 0 59.58, 0 48.75 M16.25 65 C5.42 65, 0 59.58, 0 48.75 M0 48.75 C0 40.4, 0 32.05, 0 16.25 M0 48.75 C0 38.74, 0 28.74, 0 16.25 M0 16.25 C0 5.42, 5.42 0, 16.25 0 M0 16.25 C0 5.42, 5.42 0, 16.25 0" stroke="#e8590c" stroke-width="2" fill="none"></path></g><g transform="translate(825 713) rotate(0 90 25)"><text x="90" y="0" font-family="Segoe UI Emoji" font-size="14px" fill="#e8590c" text-anchor="middle" style="white-space: pre;" direction="ltr" dominant-baseline="text-before-edge">🔷 Neo4j MCP Server</text><text x="90" y="17.5" font-family="Segoe UI Emoji" font-size="14px" fill="#e8590c" text-anchor="middle" style="white-space: pre;" direction="ltr" dominant-baseline="text-before-edge">get-schema  |  read-cypher</text></g><g stroke-opacity="0.6" fill-opacity="0.6" transform="translate(545 780) rotate(0 150 8)"><text x="0" y="0" font-family="Segoe UI Emoji" font-size="11px" fill="#868e96" text-anchor="start" style="white-space: pre;" direction="ltr" dominant-baseline="text-before-edge">Go binary, Docker, ARM64, read-only mode</text></g><g stroke-linecap="round"><g transform="translate(915 770) rotate(0 0 30)"><path d="M0 0 C0 10, 0 50, 0 60 M0 0 C0 10, 0 50, 0 60" stroke="#2f9e44" stroke-width="2" fill="none"></path></g><g transform="translate(915 770) rotate(0 0 30)"><path d="M-10.26 31.81 C-8.11 37.71, -5.97 43.6, 0 60 M-10.26 31.81 C-6.94 40.93, -3.62 50.04, 0 60" stroke="#2f9e44" stroke-width="2" fill="none"></path></g><g transform="translate(915 770) rotate(0 0 30)"><path d="M10.26 31.81 C8.11 37.71, 5.97 43.6, 0 60 M10.26 31.81 C6.94 40.93, 3.62 50.04, 0 60" stroke="#2f9e44" stroke-width="2" fill="none"></path></g></g><mask></mask><g transform="translate(930 792) rotate(0 55 8)"><text x="0" y="0" font-family="Segoe UI Emoji" font-size="12px" fill="#2f9e44" text-anchor="start" style="white-space: pre;" direction="ltr" dominant-baseline="text-before-edge">Bolt (neo4j+s://)</text></g><g stroke-opacity="0.25" fill-opacity="0.25" stroke-linecap="round" transform="translate(520 860) rotate(0 260 65)"><path d="M32 0 C199.97 0, 367.93 0, 488 0 C509.33 0, 520 10.67, 520 32 C520 53.51, 520 75.03, 520 98 C520 119.33, 509.33 130, 488 130 C369.06 130, 250.12 130, 32 130 C10.67 130, 0 119.33, 0 98 C0 84.09, 0 70.18, 0 32 C0 10.67, 10.67 0, 32 0" stroke="none" stroke-width="0" fill="#b2f2bb"></path><path d="M32 0 C127.38 0, 222.76 0, 488 0 M32 0 C153.93 0, 275.85 0, 488 0 M488 0 C509.33 0, 520 10.67, 520 32 M488 0 C509.33 0, 520 10.67, 520 32 M520 32 C520 52.11, 520 72.22, 520 98 M520 32 C520 46.85, 520 61.69, 520 98 M520 98 C520 119.33, 509.33 130, 488 130 M520 98 C520 119.33, 509.33 130, 488 130 M488 130 C318.44 130, 148.87 130, 32 130 M488 130 C363.3 130, 238.59 130, 32 130 M32 130 C10.67 130, 0 119.33, 0 98 M32 130 C10.67 130, 0 119.33, 0 98 M0 98 C0 78.79, 0 59.59, 0 32 M0 98 C0 78.86, 0 59.72, 0 32 M0 32 C0 10.67, 10.67 0, 32 0 M0 32 C0 10.67, 10.67 0, 32 0" stroke="#2f9e44" stroke-width="2" fill="none"></path></g><g transform="translate(535 868) rotate(0 100 12)"><text x="0" y="0" font-family="Segoe UI Emoji" font-size="18px" fill="#2f9e44" text-anchor="start" style="white-space: pre;" direction="ltr" dominant-baseline="text-before-edge">🔷 NEO4J AURA</text></g><g stroke-linecap="round" transform="translate(550 900) rotate(0 230 35)"><path d="M17.5 0 C106.04 0, 194.57 0, 442.5 0 C454.17 0, 460 5.83, 460 17.5 C460 30.68, 460 43.87, 460 52.5 C460 64.17, 454.17 70, 442.5 70 C301.54 70, 160.57 70, 17.5 70 C5.83 70, 0 64.17, 0 52.5 C0 42.1, 0 31.69, 0 17.5 C0 5.83, 5.83 0, 17.5 0" stroke="none" stroke-width="0" fill="#b2f2bb"></path><path d="M17.5 0 C106.4 0, 195.3 0, 442.5 0 M17.5 0 C107.33 0, 197.17 0, 442.5 0 M442.5 0 C454.17 0, 460 5.83, 460 17.5 M442.5 0 C454.17 0, 460 5.83, 460 17.5 M460 17.5 C460 29.39, 460 41.28, 460 52.5 M460 17.5 C460 24.64, 460 31.78, 460 52.5 M460 52.5 C460 64.17, 454.17 70, 442.5 70 M460 52.5 C460 64.17, 454.17 70, 442.5 70 M442.5 70 C356.14 70, 269.78 70, 17.5 70 M442.5 70 C312.83 70, 183.15 70, 17.5 70 M17.5 70 C5.83 70, 0 64.17, 0 52.5 M17.5 70 C5.83 70, 0 64.17, 0 52.5 M0 52.5 C0 43.24, 0 33.98, 0 17.5 M0 52.5 C0 44, 0 35.5, 0 17.5 M0 17.5 C0 5.83, 5.83 0, 17.5 0 M0 17.5 C0 5.83, 5.83 0, 17.5 0" stroke="#2f9e44" stroke-width="2" fill="none"></path></g><g transform="translate(570 908) rotate(0 210 27)"><text x="210" y="0" font-family="Segoe UI Emoji" font-size="14px" fill="#2f9e44" text-anchor="middle" style="white-space: pre;" direction="ltr" dominant-baseline="text-before-edge">🔷 Aircraft Digital Twin — Knowledge Graph</text><text x="210" y="17.5" font-family="Segoe UI Emoji" font-size="14px" fill="#2f9e44" text-anchor="middle" style="white-space: pre;" direction="ltr" dominant-baseline="text-before-edge">20 Aircraft, 320 Components, 300 MaintenanceEvents</text><text x="210" y="35" font-family="Segoe UI Emoji" font-size="14px" fill="#2f9e44" text-anchor="middle" style="white-space: pre;" direction="ltr" dominant-baseline="text-before-edge">800 Flights, 12 Airports  |  8 node types, 13 rel types</text></g><g stroke-opacity="0.6" fill-opacity="0.6" transform="translate(545 640) rotate(0 100 8)"><text x="0" y="0" font-family="Segoe UI Emoji" font-size="11px" fill="#868e96" text-anchor="start" style="white-space: pre;" direction="ltr" dominant-baseline="text-before-edge">Lab 4 — AWS AgentCore overview</text></g><g stroke-linecap="round" transform="translate(20 665) rotate(0 235 162.5)"><path d="M32 0 C133.59 0, 235.17 0, 438 0 C459.33 0, 470 10.67, 470 32 C470 121.06, 470 210.12, 470 293 C470 314.33, 459.33 325, 438 325 C306.03 325, 174.06 325, 32 325 C10.67 325, 0 314.33, 0 293 C0 214.17, 0 135.35, 0 32 C0 10.67, 10.67 0, 32 0" stroke="none" stroke-width="0" fill="#ffffff"></path><path d="M32 0 C116.93 0, 201.87 0, 438 0 M438 0 C459.33 0, 470 10.67, 470 32 M470 32 C470 101.07, 470 170.13, 470 293 M470 293 C470 314.33, 459.33 325, 438 325 M438 325 C278.76 325, 119.52 325, 32 325 M32 325 C10.67 325, 0 314.33, 0 293 M0 293 C0 222.71, 0 152.42, 0 32 M0 32 C0 10.67, 10.67 0, 32 0" stroke="#868e96" stroke-width="1.5" fill="none" stroke-dasharray="8 9"></path></g><g transform="translate(40 675) rotate(0 100 12)"><text x="0" y="0" font-family="Segoe UI Emoji" font-size="18px" fill="#1e1e1e" text-anchor="start" style="white-space: pre;" direction="ltr" dominant-baseline="text-before-edge">🔗 How It All Connects</text></g><g transform="translate(40 710) rotate(0 215 132.5)"><text x="0" y="0" font-family="Segoe UI Emoji" font-size="14px" fill="#495057" text-anchor="start" style="white-space: pre;" direction="ltr" dominant-baseline="text-before-edge">1. Neo4j Aura hosts the Aircraft Digital Twin</text><text x="0" y="17.5" font-family="Segoe UI Emoji" font-size="14px" fill="#495057" text-anchor="start" style="white-space: pre;" direction="ltr" dominant-baseline="text-before-edge">   graph (admin's shared instance, full dataset)</text><text x="0" y="35" font-family="Segoe UI Emoji" font-size="14px" fill="#495057" text-anchor="start" style="white-space: pre;" direction="ltr" dominant-baseline="text-before-edge"></text><text x="0" y="52.5" font-family="Segoe UI Emoji" font-size="14px" fill="#495057" text-anchor="start" style="white-space: pre;" direction="ltr" dominant-baseline="text-before-edge">2. Neo4j MCP Server deployed to AWS AgentCore</text><text x="0" y="70" font-family="Segoe UI Emoji" font-size="14px" fill="#495057" text-anchor="start" style="white-space: pre;" direction="ltr" dominant-baseline="text-before-edge">   Runtime exposes read-only Cypher tools</text><text x="0" y="87.5" font-family="Segoe UI Emoji" font-size="14px" fill="#495057" text-anchor="start" style="white-space: pre;" direction="ltr" dominant-baseline="text-before-edge"></text><text x="0" y="105" font-family="Segoe UI Emoji" font-size="14px" fill="#495057" text-anchor="start" style="white-space: pre;" direction="ltr" dominant-baseline="text-before-edge">3. databrick_samples/ sets up the Unity Catalog</text><text x="0" y="122.5" font-family="Segoe UI Emoji" font-size="14px" fill="#495057" text-anchor="start" style="white-space: pre;" direction="ltr" dominant-baseline="text-before-edge">   HTTP Connection with OAuth2 M2M credentials</text><text x="0" y="140" font-family="Segoe UI Emoji" font-size="14px" fill="#495057" text-anchor="start" style="white-space: pre;" direction="ltr" dominant-baseline="text-before-edge">   (neo4j-mcp-http-connection.ipynb)</text><text x="0" y="157.5" font-family="Segoe UI Emoji" font-size="14px" fill="#495057" text-anchor="start" style="white-space: pre;" direction="ltr" dominant-baseline="text-before-edge"></text><text x="0" y="175" font-family="Segoe UI Emoji" font-size="14px" fill="#495057" text-anchor="start" style="white-space: pre;" direction="ltr" dominant-baseline="text-before-edge">4. Lab 4 Supervisor Agent ties it together:</text><text x="0" y="192.5" font-family="Segoe UI Emoji" font-size="14px" fill="#495057" text-anchor="start" style="white-space: pre;" direction="ltr" dominant-baseline="text-before-edge">   Routes sensor queries to Genie</text><text x="0" y="210" font-family="Segoe UI Emoji" font-size="14px" fill="#495057" text-anchor="start" style="white-space: pre;" direction="ltr" dominant-baseline="text-before-edge">   (Lakehouse SQL) and relationship queries</text><text x="0" y="227.5" font-family="Segoe UI Emoji" font-size="14px" fill="#495057" text-anchor="start" style="white-space: pre;" direction="ltr" dominant-baseline="text-before-edge">   to Neo4j MCP Agent (via HTTP Connection</text><text x="0" y="245" font-family="Segoe UI Emoji" font-size="14px" fill="#495057" text-anchor="start" style="white-space: pre;" direction="ltr" dominant-baseline="text-before-edge">   -&gt; AgentCore Gateway -&gt; MCP Server -&gt; Aura)</text></g><g stroke-linecap="round"><g stroke-opacity="0.3" fill-opacity="0.3" transform="translate(510 655) rotate(0 0 172.5)"><path d="M0 0 C0 57.5, 0 287.5, 0 345" stroke="#868e96" stroke-width="1.5" fill="none" stroke-dasharray="1.5 7"></path></g></g><mask></mask></svg>